<?xml version="1.0" encoding="UTF-8"?>
<svg xmlns="http://www.w3.org/2000/svg" viewBox="0 0 841.89 841.89">
  <defs>
    <style>
      .honshu {
        fill: #314e7a;
      }

      .field {
        fill: #ffffff;
      }

      .sakura {
        fill: #ff94d1;
      }

      .hinomaru {
        fill: #e73817;
      }
    </style>
  </defs>
  <g id="field" data-name="field">
    <rect class="field" width="841.89" height="841.89"/>
  </g>
  <g id="charges" data-name="charges">
    <g>
      <path class="sakura" d="M260.41,628.18l-30.57,1.07,18.23-24.56c-13.06-5.07-34.04-2.31-54.42,8.39-28.15,14.78-36.5,54.33-36.5,54.33,0,0,37.29,15.58,65.44.8,20.38-10.7,34.56-26.4,37.81-40.03Z"/>
      <g>
        <path class="honshu" d="M443.9,479.61c7.04,17.94-5.52,41.05-28.04,51.61-22.52,10.57-46.48,4.59-53.52-13.35-7.04-17.94,5.52-41.05,28.04-51.61,22.52-10.57,46.48-4.59,53.52,13.35Z"/>
        <path class="honshu" d="M594.46,334.45c-6.77-16.78-66.84-5.5-134.16,25.21-67.32,30.71-116.41,69.21-109.64,85.99,5.81,14.41,50.89,8.13,106.12-13.36,1.74,44.23,11.55,76.57,25.17,77.43,16.81,1.06,33.18-46.25,37.05-106.35,48.92-26.73,81.01-55.14,75.46-68.92Z"/>
        <path class="honshu" d="M257.99,511.37c-7.7,84.67,30.72,83.88,60.05,71.69,29.5-12.26,42.77-43.09,33.03-61.47-4.49-8.48-13.43-13.52-24.48-14.98,13.19-12.45,18.72-28.55,12.47-40.34-8.08-15.24-32.78-17.5-55.16-5.04-22.39,12.45-23.76,32.84-25.91,50.14"/>
        <path class="hinomaru" d="M682.77,206.67c10.46,35.33-21.97,78.46-72.43,96.33-50.46,17.87-99.85,3.71-110.31-31.62-10.46-35.33,21.97-78.46,72.43-96.33,50.46-17.87,99.85-3.71,110.31,31.62Z"/>
      </g>
    </g>
  </g>
</svg>